# Blender 4.2.2 LTS
# www.blender.org
mtllib CameraTest.mtl
o Plane
v -5.599309 0.119135 5.594881
v 6.085223 0.119135 5.594881
v -5.599309 0.119135 -6.089651
v 6.085223 0.119135 -6.089651
v -5.599309 0.713051 -6.089651
v -5.599309 0.713051 5.594881
v 6.085223 0.713051 5.594881
v 6.085223 0.713051 -6.089651
vn -0.0000 -1.0000 -0.0000
vn -0.0000 1.0000 -0.0000
vn -0.0000 -0.0000 1.0000
vn 1.0000 -0.0000 -0.0000
vn -1.0000 -0.0000 -0.0000
vn -0.0000 -0.0000 -1.0000
vt 0.000000 0.000000
vt 0.000000 1.000000
vt 1.000000 1.000000
vt 1.000000 0.000000
s 0
usemtl Material.002
f 1/1/1 3/2/1 4/3/1 2/4/1
f 6/1/2 7/4/2 8/3/2 5/2/2
f 1/1/3 2/4/3 7/4/3 6/1/3
f 2/4/4 4/3/4 8/3/4 7/4/4
f 3/2/5 1/1/5 6/1/5 5/2/5
f 4/3/6 3/2/6 5/2/6 8/3/6
o Cube
v -0.613564 0.891762 0.326106
v -0.613564 2.891762 0.326106
v -0.613564 0.891762 -1.673894
v -0.613564 2.891762 -1.673894
v 1.386436 0.891762 0.326106
v 1.386436 2.891762 0.326106
v 1.386436 0.891762 -1.673894
v 1.386436 2.891762 -1.673894
vn -1.0000 -0.0000 -0.0000
vn -0.0000 -0.0000 -1.0000
vn 1.0000 -0.0000 -0.0000
vn -0.0000 -0.0000 1.0000
vn -0.0000 -1.0000 -0.0000
vn -0.0000 1.0000 -0.0000
vt 0.375000 0.000000
vt 0.625000 0.000000
vt 0.625000 0.250000
vt 0.375000 0.250000
vt 0.625000 0.500000
vt 0.375000 0.500000
vt 0.625000 0.750000
vt 0.375000 0.750000
vt 0.625000 1.000000
vt 0.375000 1.000000
vt 0.125000 0.500000
vt 0.125000 0.750000
vt 0.875000 0.500000
vt 0.875000 0.750000
s 0
usemtl Material.006
f 9/5/7 10/6/7 12/7/7 11/8/7
f 11/8/8 12/7/8 16/9/8 15/10/8
f 15/10/9 16/9/9 14/11/9 13/12/9
f 13/12/10 14/11/10 10/13/10 9/14/10
f 11/15/11 15/10/11 13/12/11 9/16/11
f 16/9/12 12/17/12 10/18/12 14/11/12
